# xmcd
#
# Track frame offsets: 
#        150
#        34452
#        54977
#        74347
#        94692
#        111712
#        135180
#        154757
#        171350
#        194430
#        219202
#        238157
#        259075
#        277925
#
# Disc length: 4018 seconds
#
# Revision: 0
# Processed by: cddbd v1.5.1PL0 Copyright (c) Steve Scherf et al.
# Submitted via: ExactAudioCopy v0.95b3
#
DISCID=cb0fb00e
DTITLE=Celine Dion - Falling into you
DYEAR=1996
DGENRE=Blues
TTITLE0=It's all coming back to me now
TTITLE1=Because you loved me
TTITLE2=Falling into you
TTITLE3=Make you Happy
TTITLE4=Seduces me
TTITLE5=All by myself
TTITLE6=Declaration of Love
TTITLE7=You make me feel like a natural woman
TTITLE8=Dreamin of you
TTITLE9=I Love you
TTITLE10=If thats what it takes
TTITLE11=I don't know
TTITLE12=River deep, mountain high
TTITLE13=Your Light
EXTD=
EXTT0=
EXTT1=
EXTT2=
EXTT3=
EXTT4=
EXTT5=
EXTT6=
EXTT7=
EXTT8=
EXTT9=
EXTT10=
EXTT11=
EXTT12=
EXTT13=
PLAYORDER=
